<svg width="2255" height="504" viewBox="0 0 2255 504" fill="none" xmlns="http://www.w3.org/2000/svg">
<path d="M0.00078246 453.6V3.49997L85.4008 56V499.8L0.00078246 453.6ZM331.38 497.7L245.28 451.5L159.18 497.7V1.39999L245.28 53.9L331.38 1.39999L503.58 100.1V398.3L331.38 497.7ZM331.38 100.1L245.28 153.3V352.1L331.38 398.3L417.48 352.1V153.3L331.38 100.1ZM574.138 98.7L746.338 -3.00407e-05L918.538 98.7L832.438 145.6L746.338 98.7L660.238 151.9L832.438 251.3L746.338 297.5L660.238 251.3V350.7L746.338 396.9L918.538 297.5V396.9L746.338 496.3L574.138 396.9V98.7ZM969.856 60.2L1055.96 7.7V358.4L1141.36 404.6V504L969.856 404.6V60.2ZM1090.12 201.6V49.7L1176.22 2.79998V148.4L1263.02 201.6L1349.12 148.4V2.79998L1434.52 49.7V400.4L1263.02 499.8L1176.22 446.6L1349.12 347.2V247.8L1263.02 301C1203.52 268.1 1150.32 235.2 1090.12 201.6ZM1668.47 103.6V203L1581.67 249.2V348.6L1668.47 401.8V421.4L1767.17 361.9L1839.97 401.8L1668.47 501.2L1495.57 401.8V203C1548.77 169.4 1608.27 136.5 1668.47 103.6ZM1668.47 401.8L1839.97 302.4V103.6L1668.47 4.19996L1495.57 103.6L1561.37 143.5L1668.47 84V103.6L1753.87 149.8V249.2C1727.27 262.5 1707.67 275.8 1668.47 302.4V401.8ZM1910.56 98.7L2082.76 -3.00407e-05L2254.96 98.7L2168.86 145.6L2082.76 98.7L1996.66 151.9L2168.86 251.3L2082.76 297.5L1996.66 251.3V350.7L2082.76 396.9L2254.96 297.5V396.9L2082.76 496.3L1910.56 396.9V98.7Z" fill="#E71C18"/>
</svg>
